<svg xmlns="http://www.w3.org/2000/svg" viewBox="0 0 512 512">
  <defs>
    <radialGradient id="bg" cx="0.5" cy="0.4" r="0.7">
      <stop offset="0" stop-color="#ffd700"/>
      <stop offset="0.5" stop-color="#d32f2f"/>
      <stop offset="1" stop-color="#1a237e"/>
    </radialGradient>
  </defs>
  <rect width="512" height="512" rx="100" fill="url(#bg)"/>
  <!-- Head -->
  <ellipse cx="256" cy="210" rx="110" ry="120" fill="#f5c99d"/>
  <!-- Hair swoop -->
  <path d="M146 180 Q135 100 210 75 Q260 55 330 80 Q395 110 385 180 Q378 205 345 190 Q340 115 256 112 Q180 115 165 195 Q155 205 146 180 Z" fill="#ffc107"/>
  <!-- Eyes -->
  <circle cx="220" cy="210" r="10" fill="#1a1a1a"/>
  <circle cx="292" cy="210" r="10" fill="#1a1a1a"/>
  <!-- Mouth -->
  <path d="M212 280 Q256 310 300 280" stroke="#9b2c2c" stroke-width="8" fill="#ff7043" stroke-linecap="round"/>
  <!-- Tie -->
  <path d="M236 330 L276 330 L286 440 L256 480 L226 440 Z" fill="#d32f2f"/>
  <!-- Musical notes -->
  <text x="70" y="120" font-size="60" fill="#fff">🎵</text>
  <text x="400" y="450" font-size="60" fill="#fff">🎶</text>
</svg>
